<svg width="41" height="41" xmlns="http://www.w3.org/2000/svg" xmlns:xlink="http://www.w3.org/1999/xlink" xmlns:svgjs="http://svgjs.com/svgjs" viewBox="0 0.094 41 40.811" fill="#00aca5"><svg xmlns="http://www.w3.org/2000/svg" width="41" height="41" viewBox="2 2.056 40 39.816"><path paint-order="stroke fill markers" fill-rule="evenodd" d="M42 23.408H28a.668.668 0 0 0-.643.848l1.876 6.757a7.515 7.515 0 0 1-5.224 9.25 7.503 7.503 0 0 1-6.648-1.331l-.237-.187a7.557 7.557 0 0 1-2.69-7.54l1.55-6.986a.665.665 0 0 0-.508-.793.636.636 0 0 0-.143-.018H2v1.337h12.502l-1.369 6.171a8.902 8.902 0 0 0 3.17 8.88l.238.186a8.833 8.833 0 0 0 12.411-1.495 8.854 8.854 0 0 0 1.565-7.831l-1.64-5.911H42v-1.337zM32.263 2.111a.665.665 0 0 0-.746.15l-6.844 7.177a32.27 32.27 0 0 0-6.244 9.41.67.67 0 0 0 .14.74l1.155 1.151h-1.58a.667.667 0 0 0-.63.449A32.511 32.511 0 0 0 16 27.603l-.333 2.569a6.125 6.125 0 0 0 1.52 4.895l.263.292a6.12 6.12 0 0 0 8.65.458 6.133 6.133 0 0 0 1.845-6.046 31.229 31.229 0 0 1 1.698-20.029l2.967-6.753a.668.668 0 0 0-.347-.878zm-3.84 7.09a32.56 32.56 0 0 0-1.774 20.888 4.799 4.799 0 0 1-3.489 5.817 4.788 4.788 0 0 1-4.722-1.445l-.262-.293a4.788 4.788 0 0 1-1.19-3.823h.003l.333-2.57a31.133 31.133 0 0 1 1.3-5.702h2.711a.666.666 0 0 0 .472-1.138l-1.97-1.972a30.884 30.884 0 0 1 5.8-8.602l4.226-4.429-1.438 3.269z"/></svg></svg>