<svg width="42" height="42" xmlns="http://www.w3.org/2000/svg" xmlns:xlink="http://www.w3.org/1999/xlink" xmlns:svgjs="http://svgjs.com/svgjs" fill="#00aca5"><svg xmlns="http://www.w3.org/2000/svg" width="42" height="42" viewBox="2 1 41 41"><path paint-order="stroke fill markers" fill-rule="evenodd" d="M29.707 26.546a.8.8 0 0 0-.8.8v5.525a4.01 4.01 0 0 1-4.005 4.004h-8.646a.8.8 0 0 0-.8.8l-.001 1.593-1.912-1.91a.8.8 0 0 0-.734-.483H7.605a4.01 4.01 0 0 1-4.003-4.004V20.539a4.008 4.008 0 0 1 4.003-4.004h8.088a.801.801 0 0 0 0-1.601H7.605A5.611 5.611 0 0 0 2 20.539V32.87a5.612 5.612 0 0 0 5.605 5.606H12.4l3.289 3.289a.803.803 0 0 0 .872.172.798.798 0 0 0 .495-.738l.002-2.723h7.845a5.612 5.612 0 0 0 5.606-5.606v-5.524a.8.8 0 0 0-.801-.801zM31.361 1h-2.027C22.917 1 17.695 6.222 17.695 12.64c0 6.417 5.222 11.639 11.64 11.639h2.026c1.002 0 1.993-.127 2.954-.38l2.994 2.993a.8.8 0 0 0 1.367-.565v-4.633a11.764 11.764 0 0 0 3.06-3.773A11.515 11.515 0 0 0 43 12.64C43 6.222 37.779 1 31.361 1zm6.032 19.66a.806.806 0 0 0-.319.642v3.09l-1.96-1.959a.803.803 0 0 0-.8-.198c-.954.293-1.947.441-2.953.441h-2.027c-5.534 0-10.037-4.502-10.037-10.037 0-5.534 4.503-10.037 10.037-10.037h2.027c5.535 0 10.037 4.503 10.037 10.037a9.957 9.957 0 0 1-4.005 8.022zm-3.44-10.897a3.4 3.4 0 0 0-3.143-3.145 3.372 3.372 0 0 0-2.551.903 3.406 3.406 0 0 0-1.077 2.48.8.8 0 1 0 1.601 0c0-.502.202-.966.569-1.307a1.789 1.789 0 0 1 3.005 1.178 1.782 1.782 0 0 1-1.392 1.875 1.515 1.515 0 0 0-1.194 1.484v1.925a.801.801 0 0 0 1.602 0v-1.86a3.371 3.371 0 0 0 2.58-3.533zm-2.815 7.994a.804.804 0 0 0-1.132 0 .809.809 0 0 0-.235.567.804.804 0 0 0 1.367.567.809.809 0 0 0 .235-.567.81.81 0 0 0-.235-.567zm-7.116 8.068H7.125a.8.8 0 1 0 0 1.6h16.897a.8.8 0 1 0 0-1.6zm.566 4.718a.809.809 0 0 0-.566-.235.804.804 0 0 0-.8.8c-.001.213.084.418.233.568a.804.804 0 0 0 1.133 0 .805.805 0 0 0 .234-.567.805.805 0 0 0-.234-.566zm-3.716-.235H7.125a.801.801 0 0 0 0 1.602h13.747a.8.8 0 1 0 0-1.602zm-2.056-8.969H7.125a.801.801 0 0 0 0 1.602h11.691a.8.8 0 1 0 0-1.602z"/></svg></svg>