<svg width="42" height="42" xmlns="http://www.w3.org/2000/svg" xmlns:xlink="http://www.w3.org/1999/xlink" xmlns:svgjs="http://svgjs.com/svgjs" fill="#00aca5"><svg xmlns="http://www.w3.org/2000/svg" width="42" height="42" viewBox="2 1 41 41"><path paint-order="stroke fill markers" fill-rule="evenodd" d="M36.996 7.005A20.367 20.367 0 0 0 22.5 1 20.367 20.367 0 0 0 8.004 7.005 20.366 20.366 0 0 0 2 21.5a20.366 20.366 0 0 0 6.004 14.495A20.367 20.367 0 0 0 22.5 42a20.367 20.367 0 0 0 14.496-6.004A20.365 20.365 0 0 0 43 21.5a20.366 20.366 0 0 0-6.004-14.496zM36.09 35.09a19.095 19.095 0 0 1-13.59 5.63c-5.133 0-9.96-2-13.59-5.63A19.093 19.093 0 0 1 3.281 21.5c0-5.134 2-9.96 5.63-13.59A19.094 19.094 0 0 1 22.5 2.283c5.133 0 9.96 1.999 13.59 5.629a19.092 19.092 0 0 1 5.629 13.59c0 5.132-2 9.96-5.63 13.589zM5.844 21.5c0-9.185 7.472-16.656 16.656-16.656 3.313 0 6.512.97 9.253 2.805a.64.64 0 0 0 .713-1.065A17.847 17.847 0 0 0 22.5 3.563 17.82 17.82 0 0 0 9.816 8.816a17.82 17.82 0 0 0-5.253 12.685c0 4.418 1.621 8.667 4.567 11.957a.638.638 0 0 0 .904.05.639.639 0 0 0 .05-.904 16.63 16.63 0 0 1-4.24-11.103zm31.572-9.966a.64.64 0 1 0-1.064.712 16.58 16.58 0 0 1 2.804 9.255c0 9.183-7.472 16.656-16.656 16.656-3.81 0-7.535-1.321-10.488-3.716a.64.64 0 1 0-.807.995A17.98 17.98 0 0 0 22.5 39.438a17.82 17.82 0 0 0 12.684-5.254 17.818 17.818 0 0 0 5.253-12.683c0-3.568-1.044-7.015-3.02-9.967zm-3.812-2.45c.43.386.845.798 1.234 1.226a.638.638 0 0 0 .905.044.64.64 0 0 0 .044-.905 17.803 17.803 0 0 0-1.33-1.32.64.64 0 0 0-.853.955zM22.5 9.328a.64.64 0 0 0 .64-.64V6.766a.64.64 0 1 0-1.28 0v1.922c0 .353.286.64.64.64zm-.64 24.984v1.923a.64.64 0 1 0 1.28 0v-1.923a.64.64 0 0 0-1.28 0zM10.327 21.5a.64.64 0 0 0-.64-.642H7.766a.64.64 0 1 0 0 1.281h1.922a.64.64 0 0 0 .64-.64zm24.344 0c0 .353.287.64.64.64h1.922a.64.64 0 1 0 0-1.282h-1.922a.64.64 0 0 0-.64.642zM16.649 10.083l-.961-1.664a.64.64 0 1 0-1.11.641l.961 1.665a.642.642 0 0 0 1.11-.642zM29.46 32.276a.64.64 0 0 0-1.11.64l.961 1.664a.641.641 0 1 0 1.11-.64l-.961-1.664zm-19.72-2.768a.64.64 0 0 0 .319-.086l1.664-.962a.641.641 0 0 0-.64-1.109l-1.665.963a.639.639 0 0 0 .321 1.194zm23.856-13.773a.64.64 0 0 0 .32-.086l1.664-.961a.64.64 0 1 0-.64-1.11l-1.665.96a.642.642 0 0 0 .32 1.197zm-3.41-7.55a.64.64 0 0 0-.875.234l-.96 1.664a.641.641 0 0 0 1.11.642l.96-1.665a.641.641 0 0 0-.235-.875zM16.414 32.042a.64.64 0 0 0-.875.234l-.961 1.664a.64.64 0 1 0 1.11.64l.96-1.664a.64.64 0 0 0-.234-.874zm16.862-3.582l1.664.962a.64.64 0 0 0 .64-1.108l-1.664-.962a.641.641 0 0 0-.64 1.108zM11.724 14.538l-1.664-.96a.64.64 0 1 0-.64 1.11l1.664.961a.64.64 0 0 0 .875-.234.642.642 0 0 0-.235-.877zM26.96 29.864a.64.64 0 0 0 .554-.96l-3.554-6.156c.288-.337.462-.772.462-1.247 0-.837-.536-1.548-1.281-1.812V11.25a.64.64 0 1 0-1.282 0v8.439a1.924 1.924 0 0 0-1.28 1.812 1.924 1.924 0 0 0 2.272 1.888l3.553 6.155c.119.205.334.32.556.32zm-5.1-8.363a.64.64 0 1 1 1.281-.001.64.64 0 0 1-1.282 0z"/></svg></svg>