<svg width="16" height="16" xmlns="http://www.w3.org/2000/svg" xmlns:xlink="http://www.w3.org/1999/xlink" xmlns:svgjs="http://svgjs.com/svgjs" viewBox="0.149 0 15.702 16" fill="#00aca5"><svg xmlns="http://www.w3.org/2000/svg" width="16" height="16" viewBox="2.269 1.423 14.282 14.553"><path paint-order="stroke fill markers" fill-rule="evenodd" d="M14.953 11.552c-.927-.751-1.866-1.207-2.78-.455l-.546.454c-.4.329-1.142 1.867-4.014-1.272C4.741 7.146 6.45 6.66 6.85 6.332l.549-.454c.91-.753.566-1.7-.09-2.675l-.396-.591C6.254 1.64 5.537 1 4.625 1.752l-.493.408A4.378 4.378 0 0 0 2.329 5.07C2 7.134 3.037 9.5 5.415 12.097c2.374 2.598 4.698 3.902 6.9 3.879 1.83-.018 2.935-.95 3.281-1.289l.495-.41c.909-.75.344-1.516-.583-2.27l-.555-.455z"/></svg></svg>