<?xml version="1.0" encoding="utf-8"?>
<!-- Generator: Adobe Illustrator 24.0.1, SVG Export Plug-In . SVG Version: 6.00 Build 0)  -->
<svg version="1.1" id="Слой_2" xmlns="http://www.w3.org/2000/svg" xmlns:xlink="http://www.w3.org/1999/xlink" x="0px" y="0px"
	 viewBox="0 0 1023.2 1056.2" style="enable-background:new 0 0 1023.2 1056.2;" xml:space="preserve">
<style type="text/css">
	.st0{fill:#00ACA5;}
</style>
<g>
	<path class="st0" d="M499.3,0C378.6,0,270.7,54.8,199.1,141h53.8c31.9-31.5,68.8-56.3,109.9-73.7C406,49,451.9,39.7,499.3,39.7
		c47.3,0,93.2,9.3,136.4,27.6c41.7,17.7,79.2,43,111.4,75.2c32.2,32.2,57.5,69.8,75.1,111.6c18.3,43.3,27.5,89.2,27.5,136.6
		s-9.3,93.4-27.5,136.6c-17.7,41.8-42.9,79.3-75.1,111.6c-3.5,3.5-7.2,7-10.8,10.4L520.1,423.4l220.5-208.8h-63.2L494.2,388.1V214.6
		h-50v-49.2H230.5h-48h-2c-45,63.7-71.4,141.4-71.4,225.3c0,215.8,174.7,390.7,390.2,390.7c77.7,0,150.2-22.8,211-62l-28-29.3
		c-14.9,9.1-30.4,17.2-46.6,24c-43.2,18.3-89.1,27.6-136.4,27.6s-93.2-9.3-136.4-27.6c-41.7-17.7-79.2-43-111.4-75.2
		c-32.2-32.2-57.5-69.8-75.1-111.6c-18.3-43.3-27.5-89.2-27.5-136.6s9.3-93.4,27.5-136.6c5.4-12.9,11.6-25.4,18.5-37.4h102.4V631
		h46.1V214.6h101v465.6h50V464.9v-5.7l208.3,217.7h0l27.7,28.9c96.6-71.1,159.3-185.7,159.3-315C889.5,174.9,714.8,0,499.3,0z"/>
	<g>
		<polygon class="st0" points="32.9,769.1 0,769.1 0,1005.7 115.7,1005.7 115.7,972.6 32.9,972.6 		"/>
		<path class="st0" d="M277.5,848.1c-6-6.2-12.5-11.3-19.5-15.1c-11.4-6.3-24.2-9.4-38.2-9.4c-24.1,0-45.1,9.2-62.2,27.3
			c-17,18.1-25.7,40.1-25.7,65.4c0,25.9,8.6,48.2,25.5,66.3c17,18.2,37.8,27.4,61.9,27.4c13.5,0,26.2-3,37.6-8.9
			c7.3-3.8,14.2-8.8,20.6-14.9v19.6h31.5V827.8h-31.5V848.1z M278.8,917.6c0,11.6-2.5,22.2-7.4,31.4c-4.9,9.1-12,16.5-21,21.8
			c-9.1,5.4-18.9,8.1-29,8.1c-10,0-19.5-2.7-28.2-8.1c-8.8-5.4-15.9-13.1-21.1-22.9c-5.3-9.8-7.9-20.2-7.9-31
			c0-10.8,2.6-21.2,7.9-31c5.2-9.7,12.2-17.2,21-22.5c8.7-5.3,18.3-8,28.6-8c16.2,0,29.5,5.8,40.7,17.6
			C273.4,885.1,278.8,899.6,278.8,917.6z"/>
		<path class="st0" d="M387.2,854.9c8.8,0,18.3,5,28.1,15l4.2,4.2l20.9-22.6l-3.8-3.9c-15.9-16-32.1-24.2-48.3-24.2
			c-14.1,0-26,4.8-35.3,14.2c-9.3,9.4-14,21.4-14,35.5c0,10.8,2.9,20.6,8.8,29.1c5.8,8.4,16,16.5,31.3,24.8
			c15.8,8.4,21.8,13.5,24,16.3c3,3.8,4.5,8,4.5,12.9c0,5.9-2.3,10.9-6.9,15.3c-4.7,4.5-10.3,6.7-17.1,6.7c-10.1,0-19.6-5.4-29-16.5
			l-4.3-5.1l-20.1,23.9l2.7,3.6c6,8,13.6,14.4,22.7,19c9.1,4.6,18.8,6.9,28.8,6.9c15.3,0,28.3-5.4,38.5-16
			c10.2-10.5,15.4-23.6,15.4-38.7c0-10.8-3.1-20.7-9.1-29.5c-6-8.4-16.8-16.8-33-25.6c-14.7-7.9-20.5-13.1-22.9-16.1
			c-3.1-3.9-4.6-7.8-4.6-11.9c0-4.6,1.8-8.5,5.4-12C377.8,856.6,382.1,854.9,387.2,854.9z"/>
		<path class="st0" d="M634.1,918.4c-0.2-23.9-6.5-44.2-18.7-60.3c-17.3-22.9-40.7-34.6-69.6-34.6c-28.1,0-50.9,11.4-67.7,33.8
			c-13.1,17.5-19.7,37.6-19.7,59.9c0,23.7,7.8,45.2,23.3,64c15.7,19.1,37.7,28.8,65.3,28.8c12.4,0,23.7-2,33.6-6
			c9.9-4,19-9.9,26.9-17.5c7.9-7.6,14.9-17.6,20.8-29.8l2.4-4.9l-26.9-14.8l-2.8,4.8c-5.9,10.3-11.4,17.8-16.3,22.3
			c-4.8,4.4-10.8,8-17.8,10.6c-7,2.7-14.3,4-21.6,4c-15.3,0-27.8-5.5-38.2-16.7c-9.4-10.2-14.6-22.7-15.9-38.1h143L634.1,918.4z
			 M494.9,894.2c3.7-10.7,8.7-19,14.8-24.6c10.2-9.6,22.2-14.2,36.4-14.2c8.6,0,16.8,1.9,24.6,5.7c7.8,3.8,14,8.8,18.7,14.9
			c3.6,4.8,6.6,10.9,9,18.3H494.9z"/>
		<path class="st0" d="M734,860.1l16.2-27.3l-4.9-2.9c-7.3-4.3-14.4-6.4-21-6.4c-8.6,0-17,2.7-24.9,8.1c-3.7,2.5-7.4,5.7-10.9,9.6
			v-13.4h-32.3v177.9h32.3v-62c0-28.3,1.2-47.1,3.6-56.1c3-11.2,7.3-19.5,12.9-24.6c5.3-4.9,10.5-7.3,15.9-7.3
			c1.4,0,4.1,0.4,8.5,2.4L734,860.1z"/>
		<path class="st0" d="M1013.3,991.8H896.7c-3.1,0-5.8,1.4-7.6,3.6c3.2-14.1,4.8-29.6,5.5-37c2-20.6,0.9-34,0.4-49.2
			c-0.8-22.1-0.7-54,3.9-93.9c-11.6,24.5-16.1,39.2-18.2,52c-2.5,15.2-2,17.9-4.3,47.8c-2.1,27.5-3.2,41.3-7.5,52.4
			c-3.8,9.8-8.2,16.4-11.6,22c-1.8-2.8-4.9-4.7-8.4-4.7H731.7c-5.5,0-9.9,4.4-9.9,9.9s4.4,9.9,9.9,9.9h100.8
			c-1.1,3.7-1.7,7.6-1.7,11.7c0,22,17.9,39.9,39.9,39.9c22,0,39.9-17.9,39.9-39.9c0-1.6-0.1-3.2-0.3-4.7h103c5.5,0,9.9-4.4,9.9-9.9
			S1018.8,991.8,1013.3,991.8z"/>
	</g>
</g>
</svg>
